<?xml version="1.0" encoding="iso-8859-1"?>
<!-- Generator: Adobe Illustrator 19.0.0, SVG Export Plug-In . SVG Version: 6.00 Build 0)  -->
<svg version="1.1" id="Layer_1" xmlns="http://www.w3.org/2000/svg" xmlns:xlink="http://www.w3.org/1999/xlink" x="0px" y="0px"
	 viewBox="0 0 512 512" style="enable-background:new 0 0 512 512;" xml:space="preserve">
<path style="fill:#FCD577;" d="M363.129,370.38h-16.188V254.644h16.188c8.748,0,15.839,7.091,15.839,15.839v84.058
	C378.968,363.289,371.877,370.38,363.129,370.38z"/>
<polygon style="fill:#314A5F;" points="512,430.056 494.408,430.056 494.408,404.739 339.318,404.739 339.318,387.146 512,387.146 
	"/>
<path style="fill:#FF6F52;" d="M242.466,81.943H43.476C19.465,81.943,0,101.408,0,125.42v198.989
	c0,58.348,47.3,105.648,105.648,105.648h225.867c9.167,0,16.598-7.431,16.598-16.598V187.591
	C348.114,129.243,300.814,81.943,242.466,81.943z"/>
<path style="fill:#E25749;" d="M12.901,324.409V125.42c0-24.012,19.465-43.478,43.478-43.478H43.478
	C19.465,81.943,0,101.408,0,125.42v198.989c0,58.348,47.301,105.649,105.649,105.649h12.901
	C60.202,430.056,12.901,382.757,12.901,324.409z"/>
<circle style="fill:#FCD577;" cx="174.058" cy="256.003" r="115.394"/>
<path style="fill:#E25749;" d="M174.057,380.187c-68.477,0-124.187-55.71-124.187-124.187s55.71-124.187,124.187-124.187
	s124.187,55.71,124.187,124.187S242.534,380.187,174.057,380.187z M174.057,149.404c-58.777,0-106.595,47.818-106.595,106.595
	s47.818,106.595,106.595,106.595s106.595-47.818,106.595-106.595S232.834,149.404,174.057,149.404z"/>
<g>
</g>
<g>
</g>
<g>
</g>
<g>
</g>
<g>
</g>
<g>
</g>
<g>
</g>
<g>
</g>
<g>
</g>
<g>
</g>
<g>
</g>
<g>
</g>
<g>
</g>
<g>
</g>
<g>
</g>
</svg>
