<?xml version="1.0" encoding="iso-8859-1"?>
<!-- Generator: Adobe Illustrator 19.0.0, SVG Export Plug-In . SVG Version: 6.00 Build 0)  -->
<svg version="1.1" id="Layer_1" xmlns="http://www.w3.org/2000/svg" xmlns:xlink="http://www.w3.org/1999/xlink" x="0px" y="0px"
	 viewBox="0 0 512 512" style="enable-background:new 0 0 512 512;" xml:space="preserve">
<path style="fill:#FCD577;" d="M252.179,17.413L252.179,17.413c-50.308,0-89.919,42.913-85.899,93.061l19.034,237.446h133.732
	l19.034-237.446C342.098,60.327,302.487,17.413,252.179,17.413z"/>
<path style="fill:#EAC36E;" d="M265.553,18.453c-4.355-0.678-8.818-1.039-13.373-1.039l0,0c-50.308,0-89.919,42.913-85.899,93.061
	l19.034,237.446h26.746l-19.035-237.446C189.369,64.867,221.806,25.254,265.553,18.453z"/>
<path style="fill:#415E72;" d="M491.216,450.448H20.784V470.7c0,13.192,10.694,23.886,23.886,23.886h422.66
	c13.192,0,23.886-10.694,23.886-23.886V450.448z"/>
<path style="fill:#344F5E;" d="M73.006,470.7v-20.252H20.784V470.7c0,13.192,10.694,23.887,23.887,23.887h52.222
	C83.7,494.585,73.006,483.891,73.006,470.7z"/>
<path style="fill:#FCD577;" d="M489.687,346.647H22.313C9.99,346.647,0,356.637,0,368.96v82.762h512V368.96
	C512,356.637,502.01,346.647,489.687,346.647z"/>
<path style="fill:#EAC36E;" d="M34.388,346.647H22.314C9.99,346.647,0,356.637,0,368.96v82.762h34.388V346.647z"/>
<g>
</g>
<g>
</g>
<g>
</g>
<g>
</g>
<g>
</g>
<g>
</g>
<g>
</g>
<g>
</g>
<g>
</g>
<g>
</g>
<g>
</g>
<g>
</g>
<g>
</g>
<g>
</g>
<g>
</g>
</svg>
