<?xml version="1.0" encoding="iso-8859-1"?>
<!-- Generator: Adobe Illustrator 19.0.0, SVG Export Plug-In . SVG Version: 6.00 Build 0)  -->
<svg version="1.1" id="Layer_1" xmlns="http://www.w3.org/2000/svg" xmlns:xlink="http://www.w3.org/1999/xlink" x="0px" y="0px"
	 viewBox="0 0 511.999 511.999" style="enable-background:new 0 0 511.999 511.999;" xml:space="preserve">
<path style="fill:#CFDCE5;" d="M490.532,93.992v328.45H21.468V93.992c0-16.045,13.004-29.061,29.049-29.061h410.965
	C477.528,64.931,490.532,77.947,490.532,93.992z"/>
<rect x="62.104" y="105.571" style="fill:#314A5F;" width="387.792" height="240.878"/>
<polygon style="fill:#415E72;" points="449.896,105.568 449.896,346.451 231.943,346.451 233.081,343.618 329.042,105.568 "/>
<path style="fill:#BAC6CC;" d="M305.632,387.088v4.392c0,13.575-11.005,24.579-24.579,24.579h-50.105
	c-13.575,0-24.579-11.005-24.579-24.579v-4.392H0v25.694c0,18.936,15.349,34.286,34.286,34.286h443.428
	c18.936,0,34.286-15.349,34.286-34.286v-25.694H305.632z"/>
<g>
</g>
<g>
</g>
<g>
</g>
<g>
</g>
<g>
</g>
<g>
</g>
<g>
</g>
<g>
</g>
<g>
</g>
<g>
</g>
<g>
</g>
<g>
</g>
<g>
</g>
<g>
</g>
<g>
</g>
</svg>
