<?xml version="1.0" encoding="iso-8859-1"?>
<!-- Generator: Adobe Illustrator 19.0.0, SVG Export Plug-In . SVG Version: 6.00 Build 0)  -->
<svg version="1.1" id="Layer_1" xmlns="http://www.w3.org/2000/svg" xmlns:xlink="http://www.w3.org/1999/xlink" x="0px" y="0px"
	 viewBox="0 0 512 512" style="enable-background:new 0 0 512 512;" xml:space="preserve">
<polygon style="fill:#CFDCE5;" points="343.754,75.864 413.408,75.864 413.408,512 98.593,512 98.593,75.864 168.234,75.864 "/>
<polygon style="fill:#FF6F52;" points="255.999,0 180.391,94.832 218.755,94.832 218.755,175.93 293.241,175.93 293.241,94.832 
	331.606,94.832 "/>
<g>
	<rect x="157.018" y="206.045" style="fill:#314A5F;" width="28.793" height="17.998"/>
	<rect x="203.801" y="206.045" style="fill:#314A5F;" width="151.174" height="17.998"/>
	<rect x="157.018" y="253.201" style="fill:#314A5F;" width="102.579" height="17.998"/>
	<rect x="277.594" y="253.201" style="fill:#314A5F;" width="77.393" height="17.998"/>
	<rect x="157.018" y="300.344" style="fill:#314A5F;" width="197.97" height="17.998"/>
	<rect x="157.018" y="347.5" style="fill:#314A5F;" width="64.194" height="17.998"/>
	<rect x="239.198" y="347.5" style="fill:#314A5F;" width="115.777" height="17.998"/>
	<rect x="279.394" y="441.787" style="fill:#314A5F;" width="75.591" height="17.998"/>
</g>
<g>
</g>
<g>
</g>
<g>
</g>
<g>
</g>
<g>
</g>
<g>
</g>
<g>
</g>
<g>
</g>
<g>
</g>
<g>
</g>
<g>
</g>
<g>
</g>
<g>
</g>
<g>
</g>
<g>
</g>
</svg>
