<?xml version="1.0" encoding="iso-8859-1"?>
<!-- Generator: Adobe Illustrator 19.0.0, SVG Export Plug-In . SVG Version: 6.00 Build 0)  -->
<svg version="1.1" id="Layer_1" xmlns="http://www.w3.org/2000/svg" xmlns:xlink="http://www.w3.org/1999/xlink" x="0px" y="0px"
	 viewBox="0 0 512 512" style="enable-background:new 0 0 512 512;" xml:space="preserve">
<polyline style="fill:#CFDCE5;" points="393.024,148.926 456.916,148.926 456.916,512 55.084,512 55.084,148.926 118.976,148.926 
	"/>
<polyline style="fill:#BAC6CC;" points="393.024,131.817 456.916,131.817 456.916,178.035 55.084,178.035 55.084,131.817 
	118.976,131.817 "/>
<g>
	<path style="fill:#FF6F52;" d="M233.227,431.519h-95.215c-5.057,0-9.155-4.099-9.155-9.155v-11.77
		c0-12.806,7.585-24.388,19.325-29.506l15.365-6.698c36.768-16.027,60.525-52.3,60.525-92.407c0-21.202-17.25-38.452-38.452-38.452
		s-38.452,17.25-38.452,38.452c0,5.056-4.098,9.155-9.155,9.155s-9.155-4.099-9.155-9.155c0-31.299,25.463-56.763,56.763-56.763
		s56.763,25.464,56.763,56.763c0,47.394-28.073,90.254-71.519,109.193l-15.365,6.698c-5.061,2.206-8.331,7.199-8.331,12.72v2.615
		h86.06c5.057,0,9.155,4.099,9.155,9.155S238.283,431.519,233.227,431.519z"/>
	<path style="fill:#FF6F52;" d="M320.927,431.49c-15.935,0-31.865-6.063-43.995-18.195c-3.575-3.575-3.575-9.371,0-12.947
		c3.577-3.575,9.373-3.575,12.948,0c17.119,17.12,44.976,17.118,62.092,0c8.293-8.293,12.86-19.319,12.86-31.047
		c0-11.727-4.567-22.754-12.86-31.047c-17.118-17.119-44.974-17.118-62.092,0c-2.62,2.618-6.558,3.401-9.978,1.985
		c-3.422-1.417-5.652-4.756-5.652-8.458v-94.894c0-5.056,4.098-9.155,9.155-9.155h86.349c5.057,0,9.155,4.099,9.155,9.155
		c0,5.056-4.098,9.155-9.155,9.155H292.56v67.877c23.385-11.958,52.813-8.16,72.36,11.387
		c11.751,11.752,18.223,27.375,18.223,43.994c0,16.619-6.472,32.244-18.223,43.994C352.793,425.424,336.857,431.49,320.927,431.49z"
		/>
</g>
<polyline style="fill:#FCD577;" points="393.024,148.926 456.916,148.926 477.558,148.926 477.558,0 34.442,0 34.442,148.926 
	55.084,148.926 118.976,148.926 "/>
<g>
	<path style="fill:#4EBFED;" d="M138.508,106.201L138.508,106.201c-10.787,0-19.531,8.744-19.531,19.531v39.063
		c0,10.787,8.744,19.531,19.531,19.531l0,0c10.787,0,19.531-8.744,19.531-19.531v-39.063
		C158.04,114.945,149.295,106.201,138.508,106.201z"/>
	<path style="fill:#4EBFED;" d="M373.492,106.201L373.492,106.201c-10.787,0-19.531,8.744-19.531,19.531v39.063
		c0,10.787,8.744,19.531,19.531,19.531l0,0c10.787,0,19.531-8.744,19.531-19.531v-39.063
		C393.023,114.945,384.279,106.201,373.492,106.201z"/>
</g>
<g>
</g>
<g>
</g>
<g>
</g>
<g>
</g>
<g>
</g>
<g>
</g>
<g>
</g>
<g>
</g>
<g>
</g>
<g>
</g>
<g>
</g>
<g>
</g>
<g>
</g>
<g>
</g>
<g>
</g>
</svg>
