<?xml version="1.0" encoding="iso-8859-1"?>
<!-- Generator: Adobe Illustrator 19.0.0, SVG Export Plug-In . SVG Version: 6.00 Build 0)  -->
<svg version="1.1" id="Layer_1" xmlns="http://www.w3.org/2000/svg" xmlns:xlink="http://www.w3.org/1999/xlink" x="0px" y="0px"
	 viewBox="0 0 512 512" style="enable-background:new 0 0 512 512;" xml:space="preserve">
<path style="fill:#4EBFED;" d="M482.244,313.76c4.871,18.781,7.461,38.476,7.461,58.773c0,28.425-11.531,54.173-30.151,72.807
	c-18.646,18.633-44.382,30.163-72.819,30.163H125.302c-56.861,0-102.97-46.108-102.97-102.97c0-20.298,2.59-39.992,7.461-58.773
	c10.593-40.917,13.652-77.493,42.632-106.472c42.285-42.285,119.062-87.663,183.594-87.663s147.041,45.376,189.326,87.663
	C474.324,236.267,471.651,272.843,482.244,313.76z"/>
<path style="fill:#FCD577;" d="M228.63,36.497c10.691,0,20.372,4.341,27.377,11.358c-6.992,7.004-11.309,16.66-11.309,27.314
	c0,10.667,4.316,20.322,11.309,27.314c-6.35,6.364-14.896,10.519-24.392,11.246c-0.987,0.074-1.986,0.112-2.985,0.112
	c-21.358,0-38.66-17.314-38.66-38.672S207.271,36.497,228.63,36.497z"/>
<path style="fill:#EAC36E;" d="M225.324,102.485c-6.992-6.992-11.309-16.648-11.309-27.314c0-10.654,4.316-20.31,11.309-27.314
	c4.246-4.253,9.487-7.516,15.341-9.43c-3.786-1.237-7.824-1.916-12.023-1.916c-10.691,0-20.371,4.342-27.363,11.346
	c-6.992,7.005-11.309,16.66-11.309,27.314c0,10.667,4.316,20.322,11.309,27.314c6.117,6.142,14.292,10.236,23.405,11.16
	c1.307,0.135,2.626,0.198,3.958,0.198c4.193,0,8.227-0.676,12.009-1.91C234.801,110.016,229.566,106.744,225.324,102.485z"/>
<path style="fill:#FCD577;" d="M510.447,279.749c6.018,16.525-6.203,34.011-23.8,34.011h-4.402
	c-10.593-40.917-32-77.493-60.98-106.472c-42.285-42.285-100.714-68.441-165.246-68.441S133.06,165.003,90.774,207.288
	c-28.98,28.98-50.387,65.556-60.98,106.472h-4.415c-17.512,0-29.83-17.375-23.85-33.839c13.898-38.303,36.527-73.276,66.838-102.464
	c44.469-42.828,102.304-68.984,163.358-74.508c8.656-0.777,17.388-1.146,26.156-1.085c7.19,0.049,14.341,0.371,21.433,0.974
	c63.521,5.365,122.516,32.704,168.107,78.294C475.807,209.52,497.117,243.098,510.447,279.749z"/>
<path style="fill:#3EB3CE;" d="M64.875,372.533c0-20.298,2.59-39.992,7.461-58.773c10.593-40.917,32-77.493,60.98-106.472
	c37.586-37.586,87.931-62.411,143.975-67.467c-7.008-0.633-14.099-0.974-21.271-0.974c-64.532,0-122.96,26.156-165.246,68.441
	c-28.98,28.98-50.387,65.555-60.98,106.472c-4.871,18.781-7.461,38.474-7.461,58.773c0,56.861,46.108,102.97,102.97,102.97h42.542
	C110.982,475.503,64.875,429.394,64.875,372.533z"/>
<path style="fill:#FCD577;" d="M283.371,36.51c21.358,0,38.672,17.314,38.672,38.66c0,21.358-17.314,38.672-38.672,38.672
	c-1.332,0-2.651-0.061-3.958-0.198c-9.113-0.925-17.289-5.019-23.405-11.16c-6.992-6.992-11.309-16.648-11.309-27.314
	c0-10.655,4.316-20.31,11.309-27.314C263.001,40.852,272.679,36.51,283.371,36.51z"/>
<path style="fill:#EAC36E;" d="M280.052,102.485c-6.992-6.992-11.309-16.648-11.309-27.314c0-10.654,4.316-20.31,11.309-27.314
	c4.246-4.253,9.487-7.516,15.341-9.43c-3.786-1.237-7.824-1.916-12.023-1.916c-10.691,0-20.372,4.342-27.365,11.346
	c-6.992,7.005-11.309,16.66-11.309,27.314c0,10.667,4.316,20.322,11.309,27.314c6.117,6.142,14.292,10.236,23.405,11.16
	c1.307,0.135,2.626,0.198,3.958,0.198c4.193,0,8.227-0.676,12.008-1.91C289.53,110.016,284.294,106.744,280.052,102.485z"/>
<g>
</g>
<g>
</g>
<g>
</g>
<g>
</g>
<g>
</g>
<g>
</g>
<g>
</g>
<g>
</g>
<g>
</g>
<g>
</g>
<g>
</g>
<g>
</g>
<g>
</g>
<g>
</g>
<g>
</g>
</svg>
