<?xml version="1.0" encoding="utf-8"?>
<!-- Generator: Adobe Illustrator 23.0.1, SVG Export Plug-In . SVG Version: 6.00 Build 0)  -->
<svg version="1.1" id="Layer_1" xmlns="http://www.w3.org/2000/svg" xmlns:xlink="http://www.w3.org/1999/xlink" x="0px" y="0px"
	 viewBox="0 0 1300 512" style="enable-background:new 0 0 1300 512;" xml:space="preserve">
<style type="text/css">
	.st0{fill:#415E72;}
	.st1{fill:#FCD577;}
	.st2{fill:#EAC36E;}
	.st3{fill:none;}
	.st4{font-family:'Arial-BoldMT';}
	.st5{font-size:111px;}
	.st6{font-family:'ArialMT';}
	.st7{font-size:81px;}
</style>
<rect x="150.1" y="156" class="st0" width="307.9" height="257.2"/>
<rect x="119" y="185" class="st1" width="56.8" height="205.3"/>
<polygon class="st2" points="175.8,185 141.7,185 119,185 119,211.6 119,390.3 141.7,390.3 141.7,211.6 175.8,211.6 "/>
<rect x="220.7" y="185" class="st1" width="56.8" height="205.3"/>
<polygon class="st2" points="277.4,185 243.3,185 220.7,185 220.7,211.6 220.7,390.3 243.3,390.3 243.3,211.6 277.4,211.6 "/>
<rect x="322.3" y="185" class="st1" width="56.8" height="205.3"/>
<polygon class="st2" points="379.1,185 345,185 322.3,185 322.3,211.6 322.3,390.3 345,390.3 345,211.6 379.1,211.6 "/>
<rect x="424" y="185" class="st1" width="56.8" height="205.3"/>
<polygon class="st2" points="480.7,185 446.7,185 424,185 424,211.6 424,390.3 446.7,390.3 446.7,211.6 480.7,211.6 "/>
<polygon class="st1" points="299.9,14.1 43.9,186.8 555.9,186.8 "/>
<circle class="st0" cx="299.9" cy="111.9" r="34.4"/>
<path class="st2" d="M299.9,152.4c-22.3,0-40.5-18.1-40.5-40.5s18.1-40.5,40.5-40.5s40.5,18.1,40.5,40.5S322.2,152.4,299.9,152.4z
	 M299.9,83.6c-15.6,0-28.4,12.7-28.4,28.4s12.7,28.4,28.4,28.4s28.4-12.7,28.4-28.4S315.5,83.6,299.9,83.6z"/>
<rect x="93.1" y="389.1" class="st1" width="413.6" height="66.3"/>
<rect x="93.1" y="426.2" class="st2" width="413.6" height="60.6"/>
<rect x="60.8" y="439.8" class="st1" width="478.2" height="50.7"/>
<rect x="586.4" y="168.5" class="st3" width="630" height="87"/>
<text transform="matrix(1 0 0 1 586.4151 247.9746)" class="st4 st5">ГИПСОЛИТ</text>
<rect x="586.4" y="326.5" class="st3" width="680" height="95.7"/>
<text transform="matrix(1 0 0 1 586.415 384.5221)" class="st6 st7">Штукатурка стен</text>
</svg>
